<?xml version="1.0" encoding="UTF-8"?>
<svg xmlns="http://www.w3.org/2000/svg" xmlns:xlink="http://www.w3.org/1999/xlink" width="0" height="0">
<defs>
<symbol id="punctuality" viewBox="0 0 32 32">
<path fill="#2e2f42" style="fill: var(--color2, #2e2f42)" d="M31.297 15.301c-0.002-8.452-6.855-15.303-15.308-15.301s-15.303 6.855-15.301 15.308c0.001 6.658 4.307 12.551 10.649 14.576 0.061 0.019 0.124 0.029 0.187 0.029 0.121-0 0.239-0.032 0.342-0.094 0.135-0.080 0.236-0.207 0.283-0.356l3.865-12.25c1.057-0.005 1.909-0.866 1.903-1.923s-0.866-1.909-1.923-1.903c-0.284 0.001-0.565 0.067-0.82 0.191l-5.106-5.107c-0.253-0.245-0.657-0.238-0.902 0.016-0.239 0.247-0.239 0.639 0 0.886l5.103 5.109c-0.392 0.799-0.168 1.764 0.536 2.309l-3.683 11.673c-7.278-2.681-11.004-10.754-8.323-18.032s10.754-11.004 18.032-8.323c7.278 2.681 11.004 10.754 8.323 18.032-1.31 3.556-4.001 6.431-7.462 7.973l-0.398-1.874c-0.073-0.345-0.411-0.565-0.756-0.492-0.109 0.023-0.209 0.074-0.293 0.148l-3.837 3.426c-0.263 0.234-0.287 0.637-0.052 0.9 0.076 0.085 0.174 0.149 0.283 0.184l4.899 1.564c0.335 0.108 0.694-0.077 0.802-0.412 0.034-0.106 0.040-0.219 0.017-0.328l-0.391-1.839c5.664-2.388 9.342-7.942 9.329-14.089zM15.992 14.664c0.352 0 0.638 0.286 0.638 0.638s-0.286 0.638-0.638 0.638c-0.352 0-0.638-0.285-0.638-0.638s0.285-0.638 0.638-0.638zM18.093 29.528l2.184-1.948 0.603 2.84-2.787-0.892z"></path>
<path fill="#4d5ae5" style="fill: var(--color1, #4d5ae5)" d="M15.354 3.185v1.275c0 0.352 0.285 0.638 0.638 0.638s0.638-0.285 0.638-0.638v-1.275c0-0.352-0.286-0.638-0.638-0.638s-0.638 0.286-0.638 0.638z"></path>
<path fill="#4d5ae5" style="fill: var(--color1, #4d5ae5)" d="M3.876 14.664c-0.352 0-0.638 0.286-0.638 0.638s0.285 0.638 0.638 0.638h1.275c0.352 0 0.638-0.285 0.638-0.638s-0.285-0.638-0.638-0.638h-1.275z"></path>
<path fill="#4d5ae5" style="fill: var(--color1, #4d5ae5)" d="M28.108 15.939c0.352 0 0.638-0.285 0.638-0.638s-0.285-0.638-0.638-0.638h-1.275c-0.352 0-0.638 0.286-0.638 0.638s0.286 0.638 0.638 0.638h1.275z"></path>
</symbol>
<symbol id="strategy" viewBox="0 0 30 32">
<path fill="#2e2f42" style="fill: var(--color2, #2e2f42)" d="M29.773 22.098l-8.443-8.505 0.937-4.615c0.242 0.094 0.499 0.144 0.758 0.146h0.006c1.192 0.014 2.17-0.941 2.184-2.133s-0.941-2.17-2.133-2.184c-1.192-0.014-2.17 0.941-2.184 2.133-0.003 0.255 0.039 0.509 0.125 0.749l-4.96 0.605-8.091-8.133c-0.099-0.101-0.235-0.159-0.377-0.16-0.14 0.001-0.274 0.056-0.373 0.155l-1.513 1.504c-0.208 0.208-0.208 0.546 0 0.754l0.814 0.826c-3.153 5.798-2.129 12.978 2.519 17.663 0.043 0.041 0.092 0.074 0.146 0.098-0.034 0.18-0.051 0.364-0.052 0.547v6.187h-6.4c-1.472 0.002-2.665 1.195-2.667 2.667v1.067c0 0.295 0.239 0.533 0.533 0.533h24.533c0.295 0 0.533-0.239 0.533-0.533v-1.067c-0.002-1.472-1.195-2.665-2.667-2.667h-6.4v-2.742c1.003 0.21 2.024 0.317 3.049 0.32 2.458-0.003 4.877-0.615 7.040-1.783l0.818 0.823c0.099 0.101 0.235 0.159 0.377 0.16 0.14-0.001 0.274-0.056 0.373-0.155l1.513-1.504c0.208-0.208 0.208-0.546 0-0.754zM22.28 6.233c0.418-0.415 1.093-0.414 1.509 0.004s0.414 1.093-0.004 1.508c-0.2 0.199-0.47 0.31-0.752 0.31h-0.003c-0.589-0.003-1.064-0.483-1.061-1.072 0.002-0.282 0.115-0.552 0.314-0.751h-0.002zM21.024 9.738l-0.598 2.946-1.175-1.182 1.774-1.763zM20.419 8.836l-1.92 1.909-1.485-1.493 3.405-0.415zM23.004 28.8c0.884 0 1.6 0.716 1.6 1.6v0.533h-23.467v-0.533c0-0.884 0.716-1.6 1.6-1.6h20.267zM15.537 26.667v1.067h-5.333v-1.067h5.333zM10.204 25.6v-4.053c0-1.294 1.196-2.347 2.667-2.347s2.667 1.053 2.667 2.347v4.053h-5.333zM16.604 23.904v-2.357c0-1.882-1.675-3.413-3.733-3.413-1.331-0.020-2.576 0.657-3.281 1.786-4.058-4.274-4.971-10.645-2.279-15.887l18.602 18.708c-2.872 1.461-6.165 1.873-9.309 1.163zM27.893 23.22l-21.057-21.181 0.755-0.752 7.935 7.98c0.004 0 0.006 0.007 0.010 0.010l13.115 13.191-0.757 0.752z"></path>
<path fill="#4d5ae5" style="fill: var(--color1, #4d5ae5)" d="M12.876 20.267h-0.005c-0.884-0.001-1.601 0.714-1.602 1.598s0.714 1.601 1.598 1.602h0.005c0.884 0.001 1.601-0.714 1.602-1.598s-0.714-1.601-1.598-1.602zM13.249 22.245c-0.1 0.1-0.236 0.156-0.378 0.155-0.295-0.002-0.532-0.242-0.531-0.536 0.001-0.141 0.057-0.276 0.157-0.375s0.233-0.154 0.373-0.155c0.295 0.002 0.532 0.242 0.531 0.536-0.001 0.141-0.057 0.276-0.157 0.375h0.005z"></path>
</symbol>
<symbol id="linkedin" viewBox="0 0 32 32">
<path fill="#f4f4fd" style="fill: var(--color2, #f4f4fd)" d="M31.992 32v-0.001h0.008v-11.736c0-5.741-1.236-10.164-7.948-10.164-3.227 0-5.392 1.771-6.276 3.449h-0.093v-2.913h-6.364v21.364h6.627v-10.579c0-2.785 0.528-5.479 3.977-5.479 3.399 0 3.449 3.179 3.449 5.657v10.401h6.62z"></path>
<path fill="#f4f4fd" style="fill: var(--color2, #f4f4fd)" d="M0.528 10.636h6.635v21.364h-6.635v-21.364z"></path>
<path fill="#f4f4fd" style="fill: var(--color2, #f4f4fd)" d="M3.843-0c-2.121 0-3.843 1.721-3.843 3.843s1.721 3.879 3.843 3.879c2.121 0 3.843-1.757 3.843-3.879-0.001-2.121-1.723-3.843-3.843-3.843v0z"></path>
</symbol>
<symbol id="facebook" viewBox="0 0 32 32">
<path fill="#f4f4fd" style="fill: var(--color2, #f4f4fd)" d="M21.329 5.313h2.921v-5.088c-0.504-0.069-2.237-0.225-4.256-0.225-4.212 0-7.097 2.649-7.097 7.519v4.481h-4.648v5.688h4.648v14.312h5.699v-14.311h4.46l0.708-5.688h-5.169v-3.919c0.001-1.644 0.444-2.769 2.735-2.769z"></path>
</symbol>
<symbol id="twitter" viewBox="0 0 32 32">
<path fill="#f4f4fd" style="fill: var(--color1, #f4f4fd)" d="M32 6.078c-1.19 0.522-2.458 0.868-3.78 1.036 1.36-0.812 2.398-2.088 2.886-3.626-1.268 0.756-2.668 1.29-4.16 1.588-1.204-1.282-2.92-2.076-4.792-2.076-3.632 0-6.556 2.948-6.556 6.562 0 0.52 0.044 1.020 0.152 1.496-5.454-0.266-10.28-2.88-13.522-6.862-0.566 0.982-0.898 2.106-0.898 3.316 0 2.272 1.17 4.286 2.914 5.452-1.054-0.020-2.088-0.326-2.964-0.808 0 0.020 0 0.046 0 0.072 0 3.188 2.274 5.836 5.256 6.446-0.534 0.146-1.116 0.216-1.72 0.216-0.42 0-0.844-0.024-1.242-0.112 0.85 2.598 3.262 4.508 6.13 4.57-2.232 1.746-5.066 2.798-8.134 2.798-0.538 0-1.054-0.024-1.57-0.090 2.906 1.874 6.35 2.944 10.064 2.944 12.072 0 18.672-10 18.672-18.668 0-0.29-0.010-0.57-0.024-0.848 1.302-0.924 2.396-2.078 3.288-3.406z"></path>
</symbol>
<symbol id="instagram" viewBox="0 0 32 32">
<path fill="#f4f4fd" style="fill: var(--color2, #f4f4fd)" d="M31.969 9.408c-0.075-1.7-0.35-2.869-0.744-3.882-0.406-1.075-1.031-2.038-1.85-2.838-0.8-0.813-1.769-1.444-2.832-1.844-1.019-0.394-2.182-0.669-3.882-0.744-1.713-0.081-2.257-0.1-6.601-0.1s-4.888 0.019-6.595 0.094c-1.7 0.075-2.869 0.35-3.882 0.744-1.075 0.406-2.038 1.031-2.838 1.85-0.813 0.8-1.444 1.769-1.844 2.832-0.394 1.019-0.669 2.182-0.744 3.882-0.081 1.713-0.1 2.257-0.1 6.601s0.019 4.888 0.094 6.595c0.075 1.7 0.35 2.869 0.744 3.882 0.406 1.075 1.038 2.038 1.85 2.838 0.8 0.813 1.769 1.444 2.832 1.844 1.019 0.394 2.182 0.669 3.882 0.744 1.706 0.075 2.25 0.094 6.595 0.094s4.888-0.018 6.595-0.094c1.7-0.075 2.869-0.35 3.882-0.744 2.151-0.831 3.851-2.532 4.682-4.682 0.394-1.019 0.669-2.182 0.744-3.882 0.075-1.707 0.094-2.251 0.094-6.595s-0.006-4.888-0.081-6.595zM29.087 22.473c-0.069 1.563-0.331 2.407-0.55 2.969-0.538 1.394-1.644 2.501-3.038 3.038-0.563 0.219-1.413 0.481-2.969 0.55-1.688 0.075-2.194 0.094-6.464 0.094s-4.782-0.018-6.464-0.094c-1.563-0.069-2.407-0.331-2.969-0.55-0.694-0.256-1.325-0.663-1.838-1.194-0.531-0.519-0.938-1.144-1.194-1.838-0.219-0.563-0.481-1.413-0.55-2.969-0.075-1.688-0.094-2.194-0.094-6.464s0.019-4.782 0.094-6.464c0.069-1.563 0.331-2.407 0.55-2.969 0.256-0.694 0.663-1.325 1.2-1.838 0.519-0.531 1.144-0.938 1.838-1.194 0.563-0.219 1.413-0.481 2.969-0.55 1.688-0.075 2.194-0.094 6.464-0.094 4.276 0 4.782 0.019 6.464 0.094 1.563 0.069 2.407 0.331 2.969 0.55 0.694 0.256 1.325 0.662 1.838 1.194 0.531 0.519 0.938 1.144 1.194 1.838 0.219 0.563 0.481 1.413 0.55 2.969 0.075 1.688 0.094 2.194 0.094 6.464s-0.019 4.77-0.094 6.457z"></path>
<path fill="#f4f4fd" style="fill: var(--color2, #f4f4fd)" d="M16.059 7.782c-4.538 0-8.22 3.682-8.22 8.22s3.682 8.22 8.22 8.22c4.538 0 8.22-3.682 8.22-8.22s-3.682-8.22-8.22-8.22zM16.059 21.335c-2.944 0-5.332-2.388-5.332-5.332s2.388-5.332 5.332-5.332c2.944 0 5.332 2.388 5.332 5.332s-2.388 5.332-5.332 5.332z"></path>
<path fill="#f4f4fd" style="fill: var(--color2, #f4f4fd)" d="M26.524 7.457c0 1.060-0.859 1.919-1.919 1.919s-1.919-0.859-1.919-1.919c0-1.060 0.859-1.919 1.919-1.919s1.919 0.859 1.919 1.919z"></path>
</symbol>
<symbol id="client-2" viewBox="0 0 104 56" >
<path fill-rule="evenodd" clip-rule="evenodd" d="M50.1136 5.93452H49.977C49.7671 5.92181 49.5571 5.91672 49.3471 5.91163H49.3471H49.3269H48.8918C48.4946 5.91163 48.0898 5.92181 47.6876 5.94215C47.6573 5.93994 47.6269 5.93994 47.5966 5.94215C43.9522 6.14863 40.3817 7.05951 37.0805 8.62492L36.6479 8.83344V30.9746L37.6598 30.6313C38.5477 30.3261 39.4938 30.0515 40.4728 29.7972C43.1193 29.1178 45.8367 28.7567 48.568 28.7216V31.6306C48.2062 31.6332 47.8546 31.6434 47.503 31.6612H47.4195C45.3175 31.7765 43.2317 32.0967 41.1913 32.6173C38.6072 33.2643 36.1143 34.2357 33.7716 35.5086V7.11189C36.2047 5.69275 38.8253 4.62687 41.5556 3.94596C43.9527 3.32705 46.4169 3.00931 48.8918 3H49.3193C49.8303 3.01271 50.3287 3.0356 50.7967 3.0712C52.0297 3.15778 53.2528 3.35263 54.4521 3.65353V6.51685C53.2874 6.24551 52.1032 6.06695 50.9105 5.98284C50.8863 5.98079 50.8621 5.97872 50.8379 5.97666C50.5911 5.95561 50.344 5.93452 50.1136 5.93452ZM55.1528 8.86138C55.7877 8.9097 56.4455 8.93259 57.1108 8.93259C59.7125 8.92307 62.3031 8.59083 64.8239 7.94339C67.4068 7.29396 69.8986 6.32178 72.2411 5.04956V32.9402C69.8067 34.3585 67.1853 35.4243 64.4546 36.1061C62.0571 36.7227 59.5931 37.0395 57.1184 37.0496C55.2433 37.0647 53.3737 36.8443 51.553 36.3935V8.32229C51.983 8.42146 52.4257 8.51301 52.876 8.58929C53.6147 8.7139 54.3939 8.80544 55.1528 8.86138ZM69.3471 9.07753L68.3352 9.41828C67.4042 9.73106 66.4657 10.0108 65.5221 10.26C62.7749 10.966 59.9514 11.3281 57.1158 11.3382C56.4556 11.3382 55.8485 11.3204 55.2616 11.2822L54.4546 11.2288V31.3178V34.0057L55.1477 34.0667C55.7903 34.1227 56.4531 34.1506 57.1209 34.1506C59.3544 34.1412 61.5781 33.8533 63.7412 33.2937C65.5223 32.8469 67.2552 32.2243 68.9145 31.4348L69.3471 31.2263V9.07753Z"/>
<path d="M35.7371 45.2124C35.5917 45.0615 35.4163 44.943 35.2224 44.8646C35.0284 44.7862 34.8203 44.7496 34.6114 44.7572C34.3888 44.7542 34.1678 44.7957 33.9613 44.8793C33.7719 44.9547 33.5998 45.068 33.4553 45.2124C33.3125 45.3572 33.2013 45.5304 33.129 45.721C33.0497 45.9207 33.0101 46.1341 33.0126 46.3491V50.1431C33.0036 50.4104 33.0546 50.6764 33.1619 50.9212C33.2514 51.1156 33.3807 51.2889 33.5413 51.4298C33.693 51.5575 33.871 51.6495 34.0625 51.6994C34.2469 51.7512 34.4376 51.7777 34.6291 51.7782C34.8404 51.7803 35.0495 51.7351 35.2413 51.646C35.4309 51.563 35.6028 51.4438 35.7473 51.295C35.8881 51.1476 36.0005 50.9752 36.0786 50.7864C36.1597 50.5951 36.201 50.3892 36.2001 50.1812V49.7566H35.2084V50.0948C35.2114 50.2103 35.1916 50.3252 35.1502 50.433C35.1179 50.5137 35.0688 50.5866 35.006 50.6466C34.9446 50.6962 34.8742 50.7334 34.7986 50.7559C34.7316 50.7782 34.6617 50.7902 34.5912 50.7915C34.5026 50.8018 34.413 50.7885 34.3312 50.7527C34.2495 50.717 34.1786 50.6602 34.1257 50.5881C34.0322 50.4356 33.9864 50.2585 33.9942 50.0795V46.5423C33.988 46.3462 34.0297 46.1515 34.1156 45.9753C34.1671 45.8952 34.2399 45.8313 34.3258 45.7908C34.4117 45.7503 34.5071 45.7349 34.6013 45.7464C34.6868 45.7434 34.7717 45.7612 34.8488 45.7984C34.9259 45.8356 34.9929 45.8911 35.044 45.96C35.155 46.1057 35.213 46.2852 35.2084 46.4686V46.7966H36.19V46.4101C36.1919 46.1831 36.1507 45.9578 36.0685 45.7464C35.9953 45.5476 35.8825 45.3659 35.7371 45.2124Z"/>
<path d="M41.6289 45.1691C41.3127 44.9021 40.9136 44.7546 40.5007 44.7521C40.2987 44.7529 40.0984 44.7891 39.9087 44.8589C39.7161 44.9279 39.5384 45.0332 39.3851 45.1691C39.2208 45.3168 39.0897 45.498 39.0005 45.7006C38.9006 45.9323 38.8515 46.183 38.8563 46.4355V50.0744C38.8495 50.3304 38.8987 50.5847 39.0005 50.8195C39.0903 51.0151 39.2215 51.1887 39.3851 51.328C39.5367 51.4688 39.7147 51.5777 39.9087 51.6485C40.0984 51.7183 40.2987 51.7544 40.5007 51.7553C40.7027 51.7549 40.9031 51.7187 41.0926 51.6485C41.29 51.5767 41.4719 51.468 41.6289 51.328C41.7871 51.1861 41.9145 51.013 42.0033 50.8195C42.1051 50.5847 42.1544 50.3304 42.1475 50.0744V46.4355C42.1524 46.183 42.1032 45.9323 42.0033 45.7006C41.9151 45.5001 41.7878 45.3194 41.6289 45.1691ZM41.166 50.0744C41.1743 50.1714 41.1609 50.269 41.1268 50.3601C41.0926 50.4512 41.0386 50.5334 40.9687 50.6008C40.8377 50.7106 40.6725 50.7708 40.5019 50.7708C40.3313 50.7708 40.1662 50.7106 40.0352 50.6008C39.9652 50.5334 39.9112 50.4512 39.8771 50.3601C39.8429 50.269 39.8295 50.1714 39.8379 50.0744V46.4355C39.8295 46.3385 39.8429 46.2409 39.8771 46.1498C39.9112 46.0587 39.9652 45.9764 40.0352 45.9091C40.1662 45.7993 40.3313 45.7391 40.5019 45.7391C40.6725 45.7391 40.8377 45.7993 40.9687 45.9091C41.0386 45.9764 41.0926 46.0587 41.1268 46.1498C41.1609 46.2409 41.1743 46.3385 41.166 46.4355V50.0744Z"/>
<path d="M49.3673 51.6994V44.8107H48.4136L47.1614 48.4572H47.1437L45.8813 44.8107H44.9377V51.6994H45.9218V47.5087H45.9395L46.9033 50.4712H47.3941L48.3655 47.5087H48.3832V51.6994H49.3673Z"/>
<path d="M54.9581 45.2937C54.8065 45.1237 54.6153 44.9943 54.4015 44.9173C54.1712 44.8424 53.9302 44.8063 53.6881 44.8105H52.226V51.6993H53.2075V49.0089H53.7134C54.0197 49.0228 54.3244 48.958 54.5988 48.8207C54.822 48.6968 55.0081 48.515 55.1377 48.2943C55.2512 48.1111 55.3277 47.9071 55.3628 47.6942C55.4014 47.435 55.4192 47.173 55.4159 46.911C55.4255 46.5802 55.3932 46.2495 55.3198 45.9269C55.2543 45.6885 55.1299 45.4706 54.9581 45.2937ZM54.4521 47.3941C54.4479 47.5188 54.4168 47.6412 54.361 47.7527C54.3049 47.8586 54.2162 47.9434 54.1081 47.9942C53.9627 48.0593 53.8041 48.0889 53.6451 48.0807H53.1974V45.7387H53.7033C53.8557 45.7312 54.0075 45.7609 54.146 45.8251C54.2475 45.8834 54.3281 45.9724 54.3762 46.0794C54.4299 46.2004 54.4591 46.331 54.4622 46.4634C54.4622 46.6084 54.4622 46.7609 54.4622 46.9211C54.4622 47.0813 54.4723 47.2466 54.4622 47.3941H54.4521Z"/>
<path d="M59.6077 44.8107H58.8032L57.2854 51.6994H58.2669L58.5553 50.2194H59.8935L60.1819 51.6994H61.1635L59.6077 44.8107ZM58.702 49.2811L59.1852 46.784H59.2029L59.6836 49.2811H58.702Z"/>
<path d="M65.9497 48.9607H65.932L64.4496 44.8107H63.506V51.6994H64.4875V47.557H64.5078L66.0079 51.6994H66.9312V44.8107H65.9497V48.9607Z"/>
<path d="M71.9476 44.8107L71.1583 47.5494H71.1381L70.3488 44.8107H69.3091L70.6574 48.7878V51.6994H71.639V48.7878L72.9873 44.8107H71.9476Z"/>
<path d="M33 53.6445H33.4731V54.9719H33.7943V53.6445H34.2649V53.3724H33V53.6445Z"/>
<path d="M36.9767 53.3724L36.3569 54.9719H36.6984L36.83 54.6083H37.4675L37.6041 54.9719H37.9532L37.3182 53.3724H36.9767ZM36.9261 54.3387L37.1437 53.7462L37.3612 54.3387H36.9261Z"/>
<path d="M40.9079 54.3821H41.2773V54.5881C41.1694 54.6746 41.0358 54.722 40.8978 54.7229C40.8333 54.7265 40.7689 54.7145 40.7099 54.688C40.6509 54.6614 40.5991 54.6211 40.5588 54.5703C40.474 54.4485 40.4322 54.3017 40.4399 54.1533C40.4399 53.7973 40.5942 53.6193 40.9003 53.6193C40.9809 53.6112 41.0617 53.6325 41.128 53.6791C41.1944 53.7257 41.2419 53.7947 41.2621 53.8735L41.5783 53.8125C41.51 53.4997 41.2849 53.3421 40.9003 53.3421C40.6947 53.3366 40.4947 53.4103 40.3413 53.5481C40.2607 53.6276 40.1983 53.7239 40.1586 53.8302C40.1188 53.9365 40.1026 54.0502 40.1111 54.1634C40.1017 54.3823 40.1749 54.5966 40.316 54.7636C40.3943 54.8444 40.4892 54.9071 40.594 54.9475C40.6988 54.9879 40.8111 55.0049 40.9231 54.9975C41.1734 55.0045 41.4165 54.9133 41.6011 54.7432V54.1126H40.9079V54.3821Z"/>
<path d="M44.9226 53.3724H44.5988V54.9719H45.7194V54.6998H44.9226V53.3724Z"/>
<path d="M48.3175 53.3724H47.9937V54.9719H48.3175V53.3724Z"/>
<path d="M51.6365 54.4405L50.9813 53.3724H50.6676V54.9719H50.9686V53.9268L51.6112 54.9719H51.9325V53.3724H51.6365V54.4405Z"/>
<path d="M54.6368 54.2675H55.4337V53.9954H54.6368V53.6445H55.4944V53.3724H54.313V54.9719H55.5273V54.6998H54.6368V54.2675Z"/>
<path d="M61.9122 54.0031H61.2823V53.3724H60.9611V54.9719H61.2823V54.2726H61.9122V54.9719H62.2335V53.3724H61.9122V54.0031Z"/>
<path d="M64.9302 54.2675H65.7296V53.9954H64.9302V53.6445H65.7903V53.3724H64.6089V54.9719H65.8206V54.6998H64.9302V54.2675Z"/>
<path d="M69.0233 54.2676C69.3015 54.2244 69.4432 54.0769 69.4432 53.8226C69.4513 53.7546 69.441 53.6856 69.4134 53.623C69.3858 53.5603 69.3419 53.5063 69.2863 53.4666C69.1415 53.3938 68.9799 53.3614 68.8183 53.3725H68.1404V54.972H68.4617V54.3032H68.5249C68.5934 54.299 68.6619 54.3112 68.7247 54.3388C68.7717 54.3678 68.8108 54.4079 68.8386 54.4558L69.1877 54.9644H69.5722L69.3774 54.6516C69.2913 54.4972 69.1699 54.3656 69.0233 54.2676ZM68.6994 54.0464H68.4617V53.6446H68.7146C68.8248 53.6357 68.9357 53.6486 69.041 53.6827C69.0644 53.7034 69.0828 53.7291 69.095 53.7579C69.1072 53.7867 69.1127 53.8179 69.1113 53.8492C69.1098 53.8804 69.1014 53.911 69.0866 53.9385C69.0718 53.966 69.051 53.9899 69.0258 54.0082C68.9202 54.0406 68.8096 54.0535 68.6994 54.0464Z"/>
<path d="M72.1096 54.2675H72.9064V53.9954H72.1096V53.6445H72.9697V53.3724H71.7858V54.9719H73V54.6998H72.1096V54.2675Z"/>
</symbol>
<symbol id="client-1" viewBox="0 0 104 56" >
<path fill-rule="evenodd" clip-rule="evenodd" d="M38 7L45.0078 13.6764L32 13.6687V46.0609H66V33.6758L73 40.3448V7H38ZM65.6924 32.8922L45.8226 13.962H65.6924V32.8922ZM59.5231 41.3227H37.3801V19.5373H38.9453V39.8475H59.5231V41.3227ZM41.7959 52.0611L40.9707 50.3643H40.2896L41.4858 52.6104V53.919H42.1035V52.6104L43.2998 50.3643H42.6211L41.7959 52.0611ZM44.8379 50.3643H44.9844L46.3271 53.919H45.6826L45.395 53.0865H44.0189L43.7319 53.919H43.0898L44.4277 50.3643H44.5718H44.8379ZM44.1864 52.6007H45.2271L44.7062 51.0927L44.1864 52.6007ZM48.4821 52.0117C48.4553 51.9776 48.4295 51.9445 48.4048 51.9122C48.3136 51.7917 48.2428 51.6754 48.1924 51.5631C48.1419 51.4491 48.1167 51.3319 48.1167 51.2115C48.1167 51.026 48.1549 50.8665 48.2314 50.733C48.3079 50.5995 48.4162 50.497 48.5562 50.4254C48.6961 50.3521 48.8597 50.3155 49.0469 50.3155C49.2275 50.3155 49.383 50.3521 49.5132 50.4254C49.645 50.497 49.7459 50.5922 49.8159 50.711C49.8875 50.8298 49.9233 50.96 49.9233 51.1016C49.9233 51.2139 49.903 51.3165 49.8623 51.4093C49.8216 51.502 49.7655 51.5867 49.6938 51.6632C49.6222 51.7397 49.5392 51.8121 49.4448 51.8805L49.1979 52.0602L49.9018 52.8909C49.925 52.8453 49.946 52.7973 49.9648 52.7472C50.0251 52.5909 50.0552 52.4176 50.0552 52.2271H50.563C50.563 52.3997 50.5459 52.5632 50.5117 52.7179C50.4792 52.8725 50.4263 53.0157 50.353 53.1475C50.3233 53.2022 50.2897 53.2545 50.2522 53.3044L50.7729 53.919H50.0918L49.8852 53.676C49.7734 53.7609 49.6518 53.8272 49.5205 53.8751C49.348 53.9369 49.1641 53.9679 48.9688 53.9679C48.7327 53.9679 48.5285 53.9247 48.356 53.8385C48.1834 53.7522 48.05 53.6334 47.9556 53.482C47.8628 53.3306 47.8164 53.1573 47.8164 52.962C47.8164 52.8171 47.8465 52.6902 47.9067 52.5811C47.967 52.4705 48.0492 52.3679 48.1533 52.2735C48.2495 52.1862 48.3591 52.099 48.4821 52.0117ZM48.7738 52.3689L48.7002 52.4224C48.6139 52.4924 48.5496 52.56 48.5073 52.6251C48.4666 52.6886 48.4398 52.7472 48.4268 52.8009C48.4137 52.8546 48.4072 52.9018 48.4072 52.9425C48.4072 53.0466 48.4292 53.141 48.4731 53.2257C48.5187 53.3103 48.5846 53.3778 48.6709 53.4283C48.7588 53.4771 48.8654 53.5015 48.9907 53.5015C49.1258 53.5015 49.2568 53.4714 49.3838 53.4112C49.4474 53.3802 49.5078 53.3429 49.5648 53.2992L48.7738 52.3689ZM48.9143 51.7196L49.1323 51.5728C49.2349 51.5045 49.3081 51.4377 49.3521 51.3726C49.396 51.3059 49.418 51.2229 49.418 51.1236C49.418 51.039 49.3854 50.9609 49.3203 50.8892C49.2552 50.8176 49.1632 50.7818 49.0444 50.7818C48.9614 50.7818 48.8914 50.8013 48.8345 50.8404C48.7775 50.8778 48.7344 50.9283 48.7051 50.9918C48.6774 51.0536 48.6636 51.1228 48.6636 51.1993C48.6636 51.2725 48.6823 51.3482 48.7197 51.4263C48.7572 51.5028 48.8084 51.5834 48.8735 51.668C48.8868 51.685 48.9004 51.7021 48.9143 51.7196ZM55.1333 52.7618H54.5229C54.505 52.9164 54.4676 53.0474 54.4106 53.1549C54.3553 53.2607 54.2731 53.3412 54.1641 53.3966C54.0566 53.4519 53.9159 53.4796 53.7417 53.4796C53.5985 53.4796 53.4756 53.4511 53.373 53.3941C53.2705 53.3372 53.1859 53.2566 53.1191 53.1524C53.054 53.0483 53.0052 52.9237 52.9727 52.7789C52.9417 52.6324 52.9263 52.4696 52.9263 52.2906V51.9903C52.9263 51.8015 52.9434 51.6339 52.9775 51.4874C53.0133 51.3393 53.0662 51.2148 53.1362 51.1138C53.2062 51.0129 53.2933 50.9364 53.3975 50.8844C53.5016 50.8323 53.6237 50.8062 53.7637 50.8062C53.9346 50.8062 54.0729 50.8355 54.1787 50.8941C54.2845 50.9511 54.3643 51.0341 54.418 51.1431C54.4733 51.2522 54.5091 51.3832 54.5254 51.5362H55.1357C55.1113 51.2986 55.0446 51.0878 54.9355 50.9039C54.8281 50.72 54.6768 50.5759 54.4814 50.4718C54.2861 50.3676 54.0469 50.3155 53.7637 50.3155C53.5407 50.3155 53.3397 50.3546 53.1606 50.4327C52.9832 50.5108 52.8311 50.6239 52.7041 50.7721C52.5771 50.9185 52.4795 51.0951 52.4111 51.3018C52.3444 51.5085 52.311 51.7397 52.311 51.9952V52.2906C52.311 52.5461 52.3436 52.7773 52.4087 52.984C52.4754 53.1907 52.5715 53.3673 52.6968 53.5138C52.8221 53.6586 52.9727 53.7709 53.1484 53.8507C53.3242 53.9288 53.522 53.9679 53.7417 53.9679C54.0282 53.9679 54.2715 53.9158 54.4717 53.8116C54.6719 53.7074 54.8273 53.565 54.938 53.3844C55.0487 53.2021 55.1138 52.9945 55.1333 52.7618ZM58.5244 52.2393V52.044C58.5244 51.7755 58.4886 51.5354 58.417 51.3238C58.347 51.1106 58.2469 50.9291 58.1167 50.7794C57.9865 50.628 57.8311 50.5133 57.6504 50.4351C57.4697 50.3554 57.2695 50.3155 57.0498 50.3155C56.8317 50.3155 56.6323 50.3554 56.4517 50.4351C56.2726 50.5133 56.1172 50.628 55.9854 50.7794C55.8551 50.9291 55.7542 51.1106 55.6826 51.3238C55.611 51.5354 55.5752 51.7755 55.5752 52.044V52.2393C55.5752 52.5079 55.611 52.7488 55.6826 52.962C55.7559 53.1752 55.8584 53.3567 55.9902 53.5064C56.1221 53.6562 56.2775 53.7709 56.4565 53.8507C56.6372 53.9288 56.8366 53.9679 57.0547 53.9679C57.2744 53.9679 57.4746 53.9288 57.6553 53.8507C57.8359 53.7709 57.9906 53.6562 58.1191 53.5064C58.2493 53.3567 58.3494 53.1752 58.4194 52.962C58.4894 52.7488 58.5244 52.5079 58.5244 52.2393ZM57.9116 52.0391V52.2393C57.9116 52.4379 57.8921 52.6137 57.853 52.7667C57.8156 52.9197 57.7603 53.0491 57.687 53.1549C57.6138 53.259 57.5243 53.338 57.4185 53.3917C57.3127 53.4438 57.1914 53.4698 57.0547 53.4698C56.9196 53.4698 56.7992 53.4438 56.6934 53.3917C56.5876 53.338 56.4964 53.259 56.4199 53.1549C56.3451 53.0491 56.2881 52.9197 56.249 52.7667C56.21 52.6137 56.1904 52.4379 56.1904 52.2393V52.0391C56.1904 51.8406 56.21 51.6656 56.249 51.5142C56.2881 51.3612 56.3442 51.2335 56.4175 51.1309C56.4923 51.0268 56.5827 50.9486 56.6885 50.8966C56.7943 50.8429 56.9147 50.816 57.0498 50.816C57.1849 50.816 57.3062 50.8429 57.4136 50.8966C57.521 50.9486 57.6113 51.0268 57.6846 51.1309C57.7594 51.2335 57.8156 51.3612 57.853 51.5142C57.8921 51.6656 57.9116 51.8406 57.9116 52.0391Z"/>
</symbol>
</defs>
</svg>